<svg width="65" height="65" viewBox="0 0 65 65" fill="none" xmlns="http://www.w3.org/2000/svg">
<path d="M29.25 42.25H35.75V48.75H29.25V42.25ZM29.25 16.25H35.75V35.75H29.25V16.25ZM32.5 0C14.5275 0 0 14.625 0 32.5C0 41.1195 3.4241 49.386 9.51903 55.481C12.5369 58.4989 16.1197 60.8928 20.0628 62.5261C24.0059 64.1594 28.232 65 32.5 65C41.1195 65 49.386 61.5759 55.481 55.481C61.5759 49.386 65 41.1195 65 32.5C65 28.232 64.1594 24.0059 62.5261 20.0628C60.8928 16.1197 58.4989 12.5369 55.481 9.51903C52.4631 6.50113 48.8803 4.10719 44.9372 2.47392C40.9941 0.840638 36.768 0 32.5 0ZM32.5 58.5C25.6044 58.5 18.9912 55.7607 14.1152 50.8848C9.23928 46.0088 6.5 39.3956 6.5 32.5C6.5 25.6044 9.23928 18.9912 14.1152 14.1152C18.9912 9.23928 25.6044 6.5 32.5 6.5C39.3956 6.5 46.0088 9.23928 50.8848 14.1152C55.7607 18.9912 58.5 25.6044 58.5 32.5C58.5 39.3956 55.7607 46.0088 50.8848 50.8848C46.0088 55.7607 39.3956 58.5 32.5 58.5Z" fill="#FEB96B"/>
</svg>
