<svg width="19" height="20" viewBox="0 0 19 20" fill="none" xmlns="http://www.w3.org/2000/svg">
<path d="M5.69843 15.325C4.65372 15.325 3.80845 16.18 3.80845 17.225C3.80845 18.27 4.65372 19.125 5.69843 19.125C6.74314 19.125 7.59791 18.27 7.59791 17.225C7.59791 16.18 6.74314 15.325 5.69843 15.325ZM0 1.075C0 1.5975 0.427382 2.025 0.949739 2.025H1.89948L5.31854 9.2355L4.03639 11.5535C3.34308 12.8265 4.25483 14.375 5.69843 14.375H16.1456C16.6679 14.375 17.0953 13.9475 17.0953 13.425C17.0953 12.9025 16.6679 12.475 16.1456 12.475H5.69843L6.74314 10.575H13.8187C14.531 10.575 15.1578 10.1855 15.4807 9.5965L18.8808 3.431C18.9608 3.287 19.0019 3.1246 18.9999 2.95985C18.998 2.79511 18.953 2.63373 18.8695 2.4917C18.7861 2.34966 18.667 2.23189 18.524 2.15004C18.3811 2.06818 18.2192 2.02508 18.0545 2.025H3.9984L3.36207 0.666501C3.28574 0.504342 3.16481 0.36729 3.01343 0.27139C2.86205 0.17549 2.68649 0.124712 2.50731 0.125001H0.949739C0.427382 0.125001 0 0.552501 0 1.075ZM15.1958 15.325C14.1511 15.325 13.3058 16.18 13.3058 17.225C13.3058 18.27 14.1511 19.125 15.1958 19.125C16.2405 19.125 17.0953 18.27 17.0953 17.225C17.0953 16.18 16.2405 15.325 15.1958 15.325Z" fill="currentColor"/>
</svg>
