<svg width="67" height="67" viewBox="0 0 67 67" fill="none" xmlns="http://www.w3.org/2000/svg">
<path d="M33.5 0.5C15.251 0.5 0.5 15.35 0.5 33.5C0.5 42.2521 3.97678 50.6458 10.1655 56.8345C13.2298 59.8989 16.8677 62.3296 20.8714 63.988C24.8752 65.6464 29.1664 66.5 33.5 66.5C42.2521 66.5 50.6458 63.0232 56.8345 56.8345C63.0232 50.6458 66.5 42.2521 66.5 33.5C66.5 29.1664 65.6464 24.8752 63.988 20.8714C62.3296 16.8677 59.8989 13.2298 56.8345 10.1655C53.7702 7.10114 50.1323 4.67038 46.1286 3.01198C42.1248 1.35357 37.8336 0.5 33.5 0.5ZM33.5 59.9C26.4983 59.9 19.7833 57.1186 14.8324 52.1676C9.88142 47.2167 7.1 40.5017 7.1 33.5C7.1 26.4983 9.88142 19.7833 14.8324 14.8324C19.7833 9.88142 26.4983 7.1 33.5 7.1C40.5017 7.1 47.2167 9.88142 52.1676 14.8324C57.1186 19.7833 59.9 26.4983 59.9 33.5C59.9 40.5017 57.1186 47.2167 52.1676 52.1676C47.2167 57.1186 40.5017 59.9 33.5 59.9Z" fill="#DD6B55"/>
<path d="M50.5 20.6408L46.351 16.5L33.5122 29.3136L20.6734 16.5L16.5 20.6408L29.3388 33.4544L16.5 46.2941L20.649 50.4349L33.4878 37.5952L46.3266 50.4105L50.5 46.2697L37.6612 33.4544L50.5 20.6408Z" fill="#DD6B55"/>
</svg>
