<svg width="50" height="46" viewBox="0 0 50 46" fill="none" xmlns="http://www.w3.org/2000/svg">
<path d="M6.52174 6.52174V0H10.8696V6.52174H17.3913V10.8696H10.8696V17.3913H6.52174V10.8696H0V6.52174H6.52174ZM13.0435 19.5652V13.0435H19.5652V6.52174H34.7826L38.7609 10.8696H45.6522C48.0435 10.8696 50 12.8261 50 15.2174V41.3043C50 43.6957 48.0435 45.6522 45.6522 45.6522H10.8696C8.47826 45.6522 6.52174 43.6957 6.52174 41.3043V19.5652H13.0435ZM28.2609 39.1304C34.2609 39.1304 39.1304 34.2609 39.1304 28.2609C39.1304 22.2609 34.2609 17.3913 28.2609 17.3913C22.2609 17.3913 17.3913 22.2609 17.3913 28.2609C17.3913 34.2609 22.2609 39.1304 28.2609 39.1304ZM21.3043 28.2609C21.3043 32.1087 24.413 35.2174 28.2609 35.2174C32.1087 35.2174 35.2174 32.1087 35.2174 28.2609C35.2174 24.413 32.1087 21.3043 28.2609 21.3043C24.413 21.3043 21.3043 24.413 21.3043 28.2609Z" fill="white"/>
</svg>
