<svg width="17" height="18" viewBox="0 0 17 18" fill="none" xmlns="http://www.w3.org/2000/svg">
<path d="M1.41667 17.5C1.41667 17.5 0 17.5 0 16.0833C0 14.6667 1.41667 10.4167 8.5 10.4167C15.5833 10.4167 17 14.6667 17 16.0833C17 17.5 15.5833 17.5 15.5833 17.5H1.41667ZM8.5 9C9.62717 9 10.7082 8.55223 11.5052 7.7552C12.3022 6.95817 12.75 5.87717 12.75 4.75C12.75 3.62283 12.3022 2.54183 11.5052 1.7448C10.7082 0.947767 9.62717 0.5 8.5 0.5C7.37283 0.5 6.29183 0.947767 5.4948 1.7448C4.69777 2.54183 4.25 3.62283 4.25 4.75C4.25 5.87717 4.69777 6.95817 5.4948 7.7552C6.29183 8.55223 7.37283 9 8.5 9Z" fill="#008ACE"/>
</svg>
