<svg width="17" height="18" viewBox="0 0 17 18" fill="none" xmlns="http://www.w3.org/2000/svg">
<path d="M11.6876 3.15621C11.6875 2.53307 11.9066 1.92974 12.3064 1.45179C12.7063 0.97383 13.2616 0.65168 13.875 0.541698C14.4884 0.431717 15.121 0.540908 15.662 0.850168C16.2031 1.15943 16.6182 1.64906 16.8346 2.23341C17.0511 2.81775 17.0552 3.4596 16.8461 4.04664C16.6371 4.63369 16.2283 5.12856 15.6912 5.44467C15.1542 5.76078 14.523 5.87799 13.9082 5.77581C13.2935 5.67363 12.7342 5.35856 12.3283 4.88572L5.19051 8.20025C5.3546 8.72021 5.3546 9.27807 5.19051 9.79803L12.3283 13.1126C12.7573 12.6136 13.3564 12.2917 14.0093 12.2092C14.6622 12.1267 15.3226 12.2895 15.8623 12.6661C16.402 13.0426 16.7827 13.6061 16.9306 14.2473C17.0785 14.8885 16.983 15.5618 16.6628 16.1366C16.3425 16.7115 15.8202 17.147 15.1971 17.3587C14.5739 17.5705 13.8944 17.5434 13.2901 17.2827C12.6858 17.0221 12.1998 16.5464 11.9263 15.9478C11.6528 15.3493 11.6113 14.6706 11.8098 14.0432L4.67202 10.7287C4.31867 11.1404 3.84769 11.434 3.32243 11.5701C2.79717 11.7062 2.24283 11.6782 1.73397 11.4898C1.22512 11.3014 0.786174 10.9618 0.476175 10.5165C0.166177 10.0712 0 9.54168 0 8.99914C0 8.4566 0.166177 7.92708 0.476175 7.4818C0.786174 7.03652 1.22512 6.69685 1.73397 6.50848C2.24283 6.32011 2.79717 6.29208 3.32243 6.42816C3.84769 6.56424 4.31867 6.8579 4.67202 7.26964L11.8098 3.9551C11.7285 3.6966 11.6873 3.42718 11.6876 3.15621Z" fill="#008ACE"/>
</svg>
